<?xml version="1.0" encoding="UTF-8"?><!DOCTYPE svg PUBLIC "-//W3C//DTD SVG 1.1//EN" "http://www.w3.org/Graphics/SVG/1.1/DTD/svg11.dtd"><svg xmlns="http://www.w3.org/2000/svg" xmlns:xlink="http://www.w3.org/1999/xlink"><symbol id="icon-calendar" viewBox="0 0 488 488">
    <path d="M177.854 269.311c0-6.115-4.96-11.069-11.08-11.069h-38.665c-6.113 0-11.074 4.954-11.074 11.069v38.66c0 6.123 4.961 11.079 11.074 11.079h38.665c6.12 0 11.08-4.956 11.08-11.079v-38.66zm96.629 0c0-6.115-4.961-11.069-11.069-11.069h-38.67c-6.113 0-11.074 4.954-11.074 11.069v38.66c0 6.123 4.961 11.079 11.074 11.079h38.67c6.108 0 11.069-4.956 11.069-11.079v-38.66zm96.634 0c0-6.115-4.961-11.069-11.074-11.069h-38.665c-6.12 0-11.08 4.954-11.08 11.069v38.66c0 6.123 4.96 11.079 11.08 11.079h38.665c6.113 0 11.074-4.956 11.074-11.079v-38.66zM177.854 365.95c0-6.125-4.96-11.075-11.08-11.075h-38.665c-6.113 0-11.074 4.95-11.074 11.075v38.653c0 6.119 4.961 11.074 11.074 11.074h38.665c6.12 0 11.08-4.956 11.08-11.074V365.95zm96.629 0c0-6.125-4.961-11.075-11.069-11.075h-38.67c-6.113 0-11.074 4.95-11.074 11.075v38.653c0 6.119 4.961 11.074 11.074 11.074h38.67c6.108 0 11.069-4.956 11.069-11.074V365.95zm96.634 0c0-6.125-4.961-11.075-11.069-11.075h-38.67c-6.12 0-11.08 4.95-11.08 11.075v38.653c0 6.119 4.96 11.074 11.08 11.074h38.67c6.108 0 11.069-4.956 11.069-11.074V365.95z"/>
    <path d="M440.254 54.354v59.05c0 26.69-21.652 48.198-48.338 48.198h-30.493c-26.688 0-48.627-21.508-48.627-48.198V54.142h-137.44v59.262c0 26.69-21.938 48.198-48.622 48.198H96.235c-26.685 0-48.336-21.508-48.336-48.198v-59.05c-23.323.703-42.488 20.002-42.488 43.723v346.061c0 24.167 19.588 44.015 43.755 44.015h389.82c24.131 0 43.755-19.889 43.755-44.015V98.077c0-23.721-19.164-43.02-42.487-43.723zm-14.163 368.234c0 10.444-8.468 18.917-18.916 18.917H80.144c-10.448 0-18.916-8.473-18.916-18.917V243.835c0-10.448 8.467-18.921 18.916-18.921h327.03c10.448 0 18.916 8.473 18.916 18.921l.001 178.753z"/>
    <path d="M96.128 129.945h30.162c9.155 0 16.578-7.412 16.578-16.567V16.573C142.868 7.417 135.445 0 126.29 0H96.128C86.972 0 79.55 7.417 79.55 16.573v96.805c0 9.155 7.422 16.567 16.578 16.567zm264.907 0h30.162c9.149 0 16.572-7.412 16.572-16.567V16.573C407.77 7.417 400.347 0 391.197 0h-30.162c-9.154 0-16.577 7.417-16.577 16.573v96.805c0 9.155 7.423 16.567 16.577 16.567z"/>
</symbol><symbol id="icon-facebook" viewBox="0 0 50 50">
    <path d="M24.826 0C11.137 0 0 11.137 0 24.826c0 13.688 11.137 24.826 24.826 24.826 13.688 0 24.826-11.138 24.826-24.826C49.652 11.137 38.516 0 24.826 0zM31 25.7h-4.039v14.396h-5.985V25.7h-2.845v-5.088h2.845v-3.291c0-2.357 1.12-6.04 6.04-6.04l4.435.017v4.939h-3.219c-.524 0-1.269.262-1.269 1.386v2.99h4.56L31 25.7z"/>
</symbol><symbol id="icon-instagram" viewBox="0 0 512 512">
    <path d="M305 256c0 27.063-21.938 49-49 49s-49-21.938-49-49 21.938-49 49-49 49 21.938 49 49zm0 0"/>
    <path d="M370.594 169.305a45.546 45.546 0 0 0-10.996-16.903 45.514 45.514 0 0 0-16.903-10.996c-5.18-2.011-12.96-4.406-27.293-5.058-15.504-.707-20.152-.86-59.402-.86-39.254 0-43.902.149-59.402.856-14.332.656-22.118 3.05-27.293 5.062a45.483 45.483 0 0 0-16.903 10.996 45.572 45.572 0 0 0-11 16.903c-2.011 5.18-4.406 12.965-5.058 27.297-.707 15.5-.86 20.148-.86 59.402 0 39.25.153 43.898.86 59.402.652 14.332 3.047 22.114 5.058 27.293a45.563 45.563 0 0 0 10.996 16.903 45.514 45.514 0 0 0 16.903 10.996c5.18 2.015 12.965 4.41 27.297 5.062 15.5.707 20.144.856 59.398.856 39.258 0 43.906-.149 59.402-.856 14.332-.652 22.118-3.047 27.297-5.062a48.68 48.68 0 0 0 27.899-27.899c2.011-5.18 4.406-12.96 5.062-27.293.707-15.504.856-20.152.856-59.402 0-39.254-.149-43.902-.856-59.402-.652-14.332-3.047-22.118-5.062-27.297zM256 331.485c-41.691 0-75.488-33.794-75.488-75.485s33.797-75.484 75.488-75.484c41.688 0 75.484 33.793 75.484 75.484S297.688 331.484 256 331.484zm78.469-136.313c-9.742 0-17.64-7.899-17.64-17.64s7.898-17.641 17.64-17.641 17.64 7.898 17.64 17.64c-.004 9.742-7.898 17.64-17.64 17.64zm0 0"/>
    <path d="M256 0C114.637 0 0 114.637 0 256s114.637 256 256 256 256-114.637 256-256S397.363 0 256 0zm146.113 316.605c-.71 15.649-3.199 26.333-6.832 35.684a75.164 75.164 0 0 1-42.992 42.992c-9.348 3.633-20.035 6.117-35.68 6.832-15.675.715-20.683.887-60.605.887-39.926 0-44.93-.172-60.61-.887-15.644-.715-26.331-3.199-35.68-6.832a72.018 72.018 0 0 1-26.038-16.957 72.044 72.044 0 0 1-16.953-26.035c-3.633-9.348-6.121-20.035-6.832-35.68-.723-15.68-.891-20.687-.891-60.609s.168-44.93.887-60.605c.71-15.649 3.195-26.332 6.828-35.684a72.013 72.013 0 0 1 16.96-26.035 72.003 72.003 0 0 1 26.036-16.957c9.352-3.633 20.035-6.117 35.684-6.832C211.07 109.172 216.078 109 256 109s44.93.172 60.605.89c15.649.712 26.332 3.196 35.684 6.825a72.061 72.061 0 0 1 26.04 16.96 72.027 72.027 0 0 1 16.952 26.036c3.637 9.352 6.121 20.035 6.836 35.684.715 15.675.883 20.683.883 60.605s-.168 44.93-.887 60.605zm0 0"/>
</symbol><symbol id="icon-jazz" viewBox="0 0 512 512">
    <path d="M173.902 241c2.63 0 5.211-1.07 7.07-2.93 1.86-1.86 2.93-4.441 2.93-7.07s-1.066-5.21-2.93-7.07c-1.859-1.86-4.44-2.93-7.07-2.93s-5.21 1.07-7.066 2.93c-1.863 1.86-2.934 4.441-2.934 7.07s1.07 5.21 2.934 7.07a10.064 10.064 0 0 0 7.066 2.93zm154.164 116.105c0 16.543 13.461 30 30 30 16.543 0 30-13.457 30-30 0-16.539-13.457-30-30-30-16.539 0-30 13.461-30 30zm40 0c0 5.516-4.484 10-10 10-5.511 0-10-4.484-10-10 0-5.511 4.489-10 10-10 5.516 0 10 4.489 10 10zm-64.609 26.028c-16.543 0-30 13.457-30 30s13.457 30 30 30 30-13.457 30-30-13.457-30-30-30zm0 40c-5.512 0-10-4.485-10-10 0-5.516 4.488-10 10-10 5.516 0 10 4.484 10 10 0 5.515-4.484 10-10 10zm0 0"/>
    <path d="M489.855 354.258L349.425 218.21a9.998 9.998 0 0 0-14.14.226c-3.844 3.965-3.742 10.297.223 14.141l2.129 2.059c-14.407 42.988-37.961 83.277-68.38 116.851l-17.503 19.325a1.63 1.63 0 0 1-2.84-1.094v-55.653a25.823 25.823 0 0 0 9.09 1.645c14.336 0 26-11.664 26-26 0-14.34-11.664-26-26-26a25.91 25.91 0 0 0-9.09 1.64v-31.597a25.91 25.91 0 0 0 9.09 1.64c14.336 0 26-11.664 26-26 0-14.335-11.664-26-26-26-3.195 0-6.258.583-9.09 1.645v-31.601a25.91 25.91 0 0 0 9.09 1.64c14.336 0 26-11.66 26-26 0-14.336-11.664-26-26-26-3.195 0-6.258.586-9.09 1.645V60.59c0-33.41-27.18-60.59-60.59-60.59a60.382 60.382 0 0 0-33.48 10.094l-32.809 21.75a35.959 35.959 0 0 1-19.937 6.011h-24.88a9.922 9.922 0 0 0-4.327.997c-.172.074-.36.16-.575.28L5.113 76.774A10.001 10.001 0 1 0 10 95.5h111.707a43.68 43.68 0 0 0 18.887-4.32L163.758 80c.043.004.12.055.144.148v113.247c0 5.52 4.477 10 10 10 5.524 0 10-4.48 10-10v-79.73h10.203a2.437 2.437 0 0 1 2.434 2.437v201.152a2.437 2.437 0 0 1-2.434 2.437h-10.203v-45.98c0-5.523-4.476-10-10-10-5.523 0-10 4.477-10 10V414.09c0 53.988 43.922 97.91 97.91 97.91 26.375 0 52.024-10.871 70.364-29.824l61.683-63.742c22.336-23.086 48.52-41.176 77.91-53.852l4.172 4.043a9.973 9.973 0 0 0 6.957 2.816 9.975 9.975 0 0 0 7.184-3.043c3.84-3.964 3.742-10.296-.227-14.14zM216.54 139.078h12.375v60.317H216.54zm0 80.317h12.375v60.316H216.54zm41.465 64.316c3.309 0 6 2.687 6 6 0 3.309-2.691 6-6 6s-6-2.691-6-6c0-3.313 2.691-6 6-6zm0-80.316c3.309 0 6 2.69 6 6 0 3.308-2.691 6-6 6s-6-2.692-6-6c0-3.31 2.691-6 6-6zm0-80.317c3.309 0 6 2.692 6 6s-2.691 6-6 6-6-2.691-6-6 2.691-6 6-6zM67.219 64.91V75.5H48.313zm126.886 28.758h-10.203v-13.52c0-6.972-3.527-13.347-9.433-17.054s-13.184-4.11-19.457-1.082l-23.114 11.156a23.61 23.61 0 0 1-10.191 2.332H87.219V57.855h14.879a55.916 55.916 0 0 0 30.992-9.343l32.805-21.75A40.447 40.447 0 0 1 188.325 20c22.382 0 40.59 18.207 40.59 40.59v58.488h-12.376v-2.98c0-12.368-10.066-22.43-22.434-22.43zm185.38 310.855l-61.68 63.743C303.21 483.352 282.8 492 261.812 492c-42.96 0-77.91-34.95-77.91-77.91v-74.4h10.203c12.368 0 22.434-10.066 22.434-22.437v-17.547h12.375v70.008c0 11.93 9.703 21.633 21.633 21.633a21.66 21.66 0 0 0 16.027-7.11l17.508-19.32c30.133-33.262 53.922-72.734 69.379-114.95l102.851 99.637c-28.777 13.489-54.57 31.915-76.828 54.918zm0 0"/>
</symbol><symbol id="icon-kids" viewBox="0 0 512 512">
    <path d="M454.773 375.483c-8.143-14.111-20.159-23.29-35.714-27.279a60.535 60.535 0 0 0-11.177-1.788c.48-5.345.73-10.73.73-16.106 0-6.824-.391-13.656-1.166-20.423 27.647-3.783 48.974-26.763 48.974-54.46 0-30.329-25.581-55.005-57.024-55.005-3.084 0-6.128.248-9.117.709a130.82 130.82 0 0 0 10.023-50.298 131.28 131.28 0 0 0-4.454-33.993c22.685-9.582 37.781-31.292 37.781-55.848C433.63 27.361 405.243 0 370.351 0c-21.271 0-40.957 10.358-52.583 27.05-18.524-8.188-38.867-12.481-59.393-12.481s-40.869 4.293-59.393 12.481C187.354 10.358 167.667 0 146.396 0c-34.893 0-63.281 27.362-63.281 60.994 0 24.557 15.098 46.267 37.783 55.849a131.318 131.318 0 0 0-4.455 33.992c0 17.756 3.56 34.728 10.023 50.298a59.764 59.764 0 0 0-9.116-.709c-31.444 0-57.025 24.675-57.025 55.005 0 27.695 21.33 50.674 48.974 54.46a179.8 179.8 0 0 0-1.167 20.423c0 5.524.265 11.055.772 16.546-.386-.008-.771-.02-1.159-.02-4.894 0-9.874.641-14.804 1.904-15.555 3.989-27.57 13.166-35.714 27.278-14.095 24.426-13.358 60.525-6.376 85.467C59.18 491.229 87.31 512 119.262 512c1.339 0 2.68-.044 4.018-.118.058-.001.115-.001.173-.004.088-.004.176-.012.264-.017l.31-.02c26.193-1.425 49.252-16.886 60.158-39.198 22.542 13.977 47.94 21.305 74.186 21.305 25.056 0 49.464-6.747 71.286-19.581.352.658.698 1.319 1.073 1.969 9.434 16.347 24.962 28 43.722 32.811a73.667 73.667 0 0 0 18.283 2.315c31.952 0 60.082-20.772 68.408-50.513 6.988-24.941 7.724-61.041-6.37-85.466zM103.121 60.994c0-22.601 19.413-40.989 43.275-40.989 17.07 0 32.595 9.549 39.551 24.328a10.004 10.004 0 0 0 13.701 4.595c17.879-9.391 38.186-14.354 58.724-14.354 20.539 0 40.845 4.963 58.724 14.354a10.001 10.001 0 0 0 13.701-4.595c6.957-14.779 22.481-24.328 39.552-24.328 23.862 0 43.275 18.387 43.275 40.989 0 15.991-9.727 30.21-24.466 36.928a134.528 134.528 0 0 0-8.184-15.741c-2.869-4.721-9.019-6.222-13.741-3.356-4.721 2.868-6.224 9.02-3.356 13.741a113.936 113.936 0 0 1 10.06 21.212c.063.18.137.352.209.526a111.165 111.165 0 0 1 6.15 36.531c0 60.894-49.354 110.999-111.923 115.868v-74.374c14.48-4.959 24.708-20.001 24.708-33.281 0-7.282-3.382-24.22-34.71-24.22s-34.71 16.938-34.71 24.22c0 13.28 10.227 28.322 24.708 33.281v74.374c-62.568-4.868-111.923-54.973-111.923-115.868a111.21 111.21 0 0 1 6.329-37.07 10.001 10.001 0 0 0-7.09-13.049c-19.173-4.622-32.564-20.957-32.564-39.722zm155.253 283.084c-5.524 0-10.002 4.478-10.002 10.002v30.317c-33.885-4.87-60.014-34.08-60.014-69.291a70.044 70.044 0 0 1 12.399-39.752c17.617 7.544 37.115 11.746 57.617 11.746s40-4.202 57.618-11.746a70.047 70.047 0 0 1 12.4 39.752c0 35.21-26.13 64.421-60.014 69.291V354.08c-.002-5.524-4.48-10.002-10.004-10.002zm-14.705-185.03c0-.975 0-1.379 1.653-2.193 1.533-.755 5.268-2.021 13.052-2.021s11.519 1.267 13.052 2.021c1.653.814 1.653 1.218 1.653 2.193 0 5.638-6.874 14.967-14.706 14.967-7.832-.001-14.704-9.329-14.704-14.967zm-79.726 307.828c-6.722 11.647-17.861 19.969-31.365 23.432a53.86 53.86 0 0 1-9.972 1.581c-1.113.07-2.227.105-3.34.105-23.018.001-43.227-14.763-49.147-35.902-5.664-20.231-6.691-50.788 4.438-70.075 5.428-9.405 13.067-15.261 23.356-17.899 3.307-.848 6.616-1.278 9.834-1.278 3.383 0 6.666.469 9.839 1.335.15.046.299.092.452.131 25.767 7.364 44.264 40.925 50.447 63.013 3.365 12.022 1.752 24.65-4.542 35.557zm160.31-41.488c-2.751 9.826-3.179 19.927-1.379 29.687-19.594 12.352-41.751 18.868-64.499 18.868-24.465 0-48.109-7.464-68.722-21.628 1.15-8.725.54-17.665-1.902-26.388-7.281-26.007-27.781-62.385-58.238-74.765a159.091 159.091 0 0 1 1.15-49.075 10.001 10.001 0 0 0-10.545-11.757c-.917.065-1.846.097-2.763.097-20.413 0-37.02-15.702-37.02-35.001s16.607-35 37.02-35c9.765 0 18.946 3.56 25.908 10.02 10.676 14.189 24.123 26.333 39.574 35.698a90.075 90.075 0 0 0-14.482 48.962c0 49.638 40.384 90.021 90.021 90.021s90.021-40.384 90.021-90.021a90.078 90.078 0 0 0-14.482-48.962c15.452-9.364 28.899-21.508 39.574-35.698 6.963-6.462 16.144-10.02 25.909-10.02 20.412 0 37.019 15.701 37.019 35s-16.607 35.001-37.019 35.001c-.916 0-1.847-.033-2.766-.097a9.997 9.997 0 0 0-8.149 3.299 10.01 10.01 0 0 0-2.397 8.459 158.987 158.987 0 0 1 2.522 28.221c0 6.194-.364 12.398-1.078 18.517-33.235 10.203-55.6 49.147-63.277 76.562zm117.63 30.168c-5.917 21.139-26.126 35.903-49.144 35.903-4.47 0-8.949-.567-13.314-1.687-13.505-3.463-24.645-11.785-31.365-23.432-6.294-10.908-7.908-23.536-4.543-35.555 6.512-23.257 26.673-59.232 54.598-63.955.109-.018.218-.037.326-.058a36.695 36.695 0 0 1 5.815-.465c3.219 0 6.528.43 9.834 1.278 10.288 2.639 17.928 8.493 23.357 17.899 11.128 19.283 10.101 49.841 4.436 70.072z"/>
    <path d="M321.264 113.305c-9.231 0-16.762 7.207-16.762 16.042 0 8.836 7.53 16.043 16.762 16.043s16.761-7.207 16.761-16.043c0-8.835-7.529-16.042-16.761-16.042zm-125.779 0c-9.232 0-16.762 7.207-16.762 16.042 0 8.836 7.529 16.043 16.762 16.043 9.231 0 16.761-7.207 16.761-16.043 0-8.835-7.53-16.042-16.761-16.042zm165.39-56.727l-.233-.231c-3.967-3.844-10.314-3.761-14.159.206-3.845 3.966-3.762 10.283.205 14.128l.062.061a9.923 9.923 0 0 0 7.043 2.92 9.989 9.989 0 0 0 7.072-2.929c3.906-3.896 3.9-10.241.01-14.155zM258.371 315.105c-5.524 0-10.002 4.478-10.002 10.002v.236c0 5.524 4.478 10.002 10.002 10.002 5.524 0 10.002-4.478 10.002-10.002v-.236c0-5.524-4.478-10.002-10.002-10.002z"/>
</symbol><symbol id="icon-logo" viewBox="0 0 34 39">
    <path d="M13.906 35.782a3.22 3.22 0 0 1 3.755-3.174l2.566-6.104h2.446l-3.566 6.739a3.21 3.21 0 0 1 1.244 2.539A3.22 3.22 0 0 1 17.128 39a3.22 3.22 0 0 1-3.222-3.218zm5.208.009a1.959 1.959 0 0 0-3.919 0 1.959 1.959 0 0 0 3.92 0zM9.978 23.394a1.845 1.845 0 0 1-.808-.808c-.189-.358-.285-.803-.286-1.336v-3.106h1.196v3.075c.002.295.049.542.143.741.093.199.227.35.403.45.174.101.385.151.629.151.245 0 .454-.048.63-.146a.973.973 0 0 0 .402-.436c.095-.194.142-.434.142-.722v-3.113h1.198v3.066c-.003.55-.1 1.005-.293 1.369a1.89 1.89 0 0 1-.825.815c-.357.181-.78.27-1.27.27-.489 0-.91-.09-1.26-.27zm10.438 0a1.845 1.845 0 0 1-.809-.808c-.189-.358-.285-.803-.286-1.336v-3.106h1.196v3.075c.002.295.05.542.144.741.092.199.227.35.402.45.175.101.385.151.629.151.245 0 .454-.048.63-.146a.973.973 0 0 0 .403-.436c.094-.194.141-.434.141-.722v-3.113h1.198v3.066c-.003.55-.1 1.005-.293 1.369a1.89 1.89 0 0 1-.825.815c-.357.181-.779.27-1.269.27-.49 0-.91-.09-1.261-.27zm-15.009.186v-2.143l-2.092-3.293h1.4l1.299 2.182 1.322-2.182h1.36l-2.09 3.27v2.165H5.407zm8.803 0v-.91l2.994-3.477h-2.901v-1.05h4.441v.91l-2.994 3.479h2.994v1.047H14.21zm10.601 0v-5.436h1.29l1.43 2.298 1.43-2.298h1.291v5.436h-1.189v-3.55l-1.531 2.321H27.5l-1.517-2.297v3.524H24.81zM0 11.926A4.237 4.237 0 0 1 6.867 8.61l7.65-5.103A2.463 2.463 0 0 1 16.749 0a2.463 2.463 0 0 1 2.464 2.46 2.463 2.463 0 0 1-2.464 2.462c-.445 0-.863-.117-1.223-.323l-6.278 5.07L27 6.192a3.602 3.602 0 0 1 3.4-2.406A3.6 3.6 0 0 1 34 7.382c0 1.94-1.537 3.52-3.46 3.596l-1.995 4.058-.056.109h-3.308l2.466-5.44a3.785 3.785 0 0 1-.2-.261L8.391 12.758A4.237 4.237 0 0 1 0 11.927zm4.878 2.761c.137-.018.417-.115.382-.116.39-.184.482-.24.57-.3.116-.079.22-.161.272-.21.043-.037.045-.038.23-.227a9.98 9.98 0 0 0 .209-.253c.056-.056.206-.303.315-.57.005-.004.006-.008.008-.013a2.833 2.833 0 0 0-1.24-3.545.353.353 0 0 0-.104-.041 1.434 1.434 0 0 0-.434-.175.497.497 0 0 0-.186-.058 2.53 2.53 0 0 0-.663-.087 2.834 2.834 0 1 0 0 5.667c.164 0 .325-.013.64-.072zm1.487-.885l-.032.032c-.04.047-.034.04.032-.032zm26.497-6.42a2.463 2.463 0 0 0-2.464-2.461 2.463 2.463 0 0 0-2.463 2.46 2.463 2.463 0 0 0 2.463 2.461 2.463 2.463 0 0 0 2.464-2.46zM18.076 2.46a1.327 1.327 0 0 0-2.653 0 1.327 1.327 0 0 0 2.653 0z"/>
</symbol><symbol id="icon-menu" viewBox="0 0 56 56">
    <path d="M28 0C12.561 0 0 12.561 0 28s12.561 28 28 28 28-12.561 28-28S43.439 0 28 0zm12 41H16a2 2 0 0 1 0-4h24a2 2 0 0 1 0 4zm0-11H16a2 2 0 0 1 0-4h24a2 2 0 0 1 0 4zm0-11H16a2 2 0 0 1 0-4h24a2 2 0 0 1 0 4z"/>
</symbol><symbol id="icon-menu1" viewBox="0 0 512 512">
    <path d="M491.318 235.318H20.682C9.26 235.318 0 244.577 0 256s9.26 20.682 20.682 20.682h470.636c11.423 0 20.682-9.259 20.682-20.682 0-11.422-9.259-20.682-20.682-20.682zm0-156.879H20.682C9.26 78.439 0 87.699 0 99.121c0 11.422 9.26 20.682 20.682 20.682h470.636c11.423 0 20.682-9.26 20.682-20.682 0-11.422-9.259-20.682-20.682-20.682zm0 313.758H20.682C9.26 392.197 0 401.456 0 412.879s9.26 20.682 20.682 20.682h470.636c11.423 0 20.682-9.259 20.682-20.682s-9.259-20.682-20.682-20.682z"/>
</symbol><symbol id="icon-pause" viewBox="0 0 70 70">
    <path d="M52.5 0c-4.972 0-9 1.529-9 6.5v57c0 4.971 4.028 6.5 9 6.5 4.971 0 9-1.529 9-6.5v-57c0-4.971-4.029-6.5-9-6.5zm-35 0c-4.972 0-9 1.529-9 6.5v57c0 4.971 4.028 6.5 9 6.5 4.971 0 9-1.529 9-6.5v-57c0-4.971-4.029-6.5-9-6.5z"/>
</symbol><symbol id="icon-play" viewBox="0 0 35 40">
    <path d="M33.657 17.254c2 1.155 2 4.041 0 5.196l-28.5 16.455c-2 1.154-4.5-.29-4.5-2.598V3.397c0-2.308 2.5-3.751 4.5-2.597l28.5 16.455z"/>
</symbol><symbol id="icon-pop" viewBox="0 0 512 512">
    <path d="M254.888 49.549c-5.523 0-10 4.477-10 10v73.185c0 5.523 4.477 10 10 10 5.522 0 10-4.477 10-10V59.549c0-5.523-4.478-10-10-10zm7.072-38.994a10.076 10.076 0 0 0-7.07-2.93c-2.64 0-5.21 1.07-7.07 2.93s-2.93 4.44-2.93 7.07 1.07 5.21 2.93 7.07 4.43 2.93 7.07 2.93c2.63 0 5.21-1.07 7.07-2.93s2.93-4.44 2.93-7.07-1.071-5.21-2.93-7.07z"/>
    <path d="M290.714 173.895v-20.423c0-16.949-13.789-30.738-30.738-30.738H249.8c-16.949 0-30.738 13.789-30.738 30.738v20.423c-21.826 4.907-42.01 14.201-59.58 26.897-.68.383-1.31.85-1.886 1.382-39.996 29.779-65.953 77.409-65.953 130.995 0 53.591 25.961 101.231 65.964 131.012.556.512 1.168.956 1.822 1.329 26.864 19.432 59.845 30.904 95.459 30.904 90.014 0 163.245-73.231 163.245-163.245 0-77.708-54.582-142.901-127.419-159.274zM147.191 238.83a479.854 479.854 0 0 0-5.997 37.652c-.378.077-.756.148-1.134.225l-18.376 3.773c6.097-15.36 14.781-29.421 25.507-41.65zm-31.956 126.271a143.156 143.156 0 0 1-3.592-31.932 143.2 143.2 0 0 1 3.373-30.93c.179-.027.358-.046.538-.083l23.633-4.853a480.618 480.618 0 0 0 .059 72.523l-23.768-4.689c-.081-.016-.162-.022-.243-.036zm6.844 21.724l18.056 3.562c.384.076.768.145 1.152.22a479.697 479.697 0 0 0 5.904 36.902 143.544 143.544 0 0 1-25.112-40.684zm51.03-171.193a142.769 142.769 0 0 1 40.452-19.622 679.613 679.613 0 0 0-10.658 71.366 571.837 571.837 0 0 0-41.078 5.293 459.276 459.276 0 0 1 11.284-57.037zm-13.544 77.721a553.601 553.601 0 0 1 41.711-5.728 676.702 676.702 0 0 0-1.456 42.311 676.986 676.986 0 0 0 1.674 49.19 574.786 574.786 0 0 1-41.871-5.509 460.614 460.614 0 0 1-.058-80.264zm13.544 157.353a459.392 459.392 0 0 1-11.206-56.441 594.05 594.05 0 0 0 41.322 5.105 679.112 679.112 0 0 0 10.954 71.141 142.72 142.72 0 0 1-41.07-19.805zM388.092 280.48l-18.376-3.773c-1.025-.211-2.052-.407-3.077-.612a479.642 479.642 0 0 0-6.511-39.994c11.86 12.849 21.408 27.862 27.964 44.379zm-53.738-66.433a459.529 459.529 0 0 1 11.663 58.313 571.94 571.94 0 0 0-41.039-5.162 681.083 681.083 0 0 0-10.77-71.786 142.706 142.706 0 0 1 40.146 18.635zm-95.292-60.575c0-5.921 4.817-10.738 10.738-10.738h10.176c5.921 0 10.738 4.817 10.738 10.738v17.222a164.27 164.27 0 0 0-15.826-.77c-5.339 0-10.617.266-15.826.77v-17.222zm-4.068 37.84a143.948 143.948 0 0 1 19.894-1.388c6.079 0 12.069.384 17.951 1.122a660.545 660.545 0 0 1 11.893 74.721 564.671 564.671 0 0 0-61.536.106 654.04 654.04 0 0 1 11.798-74.561zm37.227 283.919l-.03.136a144.091 144.091 0 0 1-17.303 1.048 144.081 144.081 0 0 1-19.254-1.299c-5.464-24.476-9.491-49.309-12.103-74.311a587.95 587.95 0 0 0 31.357.848c9.84 0 19.68-.252 29.515-.746a660.062 660.062 0 0 1-12.182 74.324zm62.133-22.94a142.645 142.645 0 0 1-40.781 18.811 681.281 681.281 0 0 0 11.082-71.564 594.195 594.195 0 0 0 41.281-4.975 459.449 459.449 0 0 1-11.582 57.728zm13.874-78.355a575.065 575.065 0 0 1-41.842 5.364c.181-2.573.352-5.147.503-7.719.326-5.514-3.88-10.246-9.394-10.571a9.987 9.987 0 0 0-10.57 9.395 656.917 656.917 0 0 1-.702 10.369 567.535 567.535 0 0 1-64.481-.1 665.894 665.894 0 0 1-.232-94.669 544.99 544.99 0 0 1 64.944-.104c.276 3.935.524 7.87.728 11.805.276 5.339 4.692 9.483 9.978 9.483.175 0 .351-.005.526-.014 5.516-.286 9.755-4.989 9.469-10.504a680.257 680.257 0 0 0-.549-9.227 553.086 553.086 0 0 1 41.679 5.576c2.356 26.919 2.336 54-.057 80.916zm11.899 56.302a479.645 479.645 0 0 0 6.419-39.26c1.031-.198 2.063-.388 3.093-.591l18.057-3.562c-6.542 16.135-15.941 30.815-27.569 43.413zm34.17-65.101l-25.692 5.068a480.554 480.554 0 0 0 .058-73.297l25.557 5.248c.18.037.359.056.539.083a143.21 143.21 0 0 1 3.373 30.931c0 10.973-1.244 21.66-3.592 31.932-.081.013-.162.019-.243.035z"/>
    <path d="M304.439 326.095c-1.859-1.86-4.439-2.93-7.069-2.93s-5.21 1.07-7.07 2.93a10.077 10.077 0 0 0-2.93 7.08c0 2.63 1.07 5.2 2.93 7.07 1.86 1.86 4.44 2.92 7.07 2.92s5.21-1.06 7.069-2.92a10.09 10.09 0 0 0 2.931-7.07 10.1 10.1 0 0 0-2.931-7.08zM89.769 444.978a43.927 43.927 0 0 1-31.391-31.801 10 10 0 0 0-19.402 0A43.931 43.931 0 0 1 7.577 444.98C3.116 446.162 0 450.212 0 454.827s3.116 8.665 7.577 9.848l.008.002a43.928 43.928 0 0 1 31.391 31.801 10.001 10.001 0 0 0 19.402 0 43.93 43.93 0 0 1 31.399-31.804 10.195 10.195 0 0 0 7.577-9.859c-.005-4.621-3.131-8.668-7.585-9.837zm-41.092 25.424A63.98 63.98 0 0 0 33.1 454.827a63.998 63.998 0 0 0 15.577-15.575 63.998 63.998 0 0 0 15.578 15.574 64.006 64.006 0 0 0-15.578 15.576zm124.957-329.579a25.133 25.133 0 0 0-.541-1.061c-.085-.219-.168-.439-.27-.655l-34.701-73.324a9.998 9.998 0 0 0-14.03-4.388l-76.123 43.833a10 10 0 0 0-4.049 12.943l21.345 45.103c-4.958.365-9.986 1.689-14.744 3.94-7.939 3.758-14.628 9.768-18.835 16.924-4.929 8.385-5.735 17.463-2.212 24.907 3.523 7.444 11.055 12.576 20.664 14.081 2.014.316 4.068.472 6.141.472 6.367 0 12.899-1.472 18.888-4.306 7.986-3.779 14.451-9.792 18.204-16.93 4.188-7.964 4.596-16.743 1.121-24.086a23.265 23.265 0 0 0-.535-1.043c-.087-.225-.173-.451-.277-.672l-27.735-58.606 58.735-33.82 19.704 41.635c-4.832.376-9.835 1.678-14.72 3.99-7.94 3.757-14.629 9.768-18.835 16.924-4.929 8.385-5.735 17.463-2.212 24.907 4.412 9.321 15.034 14.533 26.951 14.533 6.128 0 12.6-1.379 18.743-4.286 17.745-8.397 26.232-26.413 19.323-41.015zM68.065 183.165c1.061 0 2.089.098 3.062.298 1.527.313 4.244 1.168 5.285 3.37 1.043 2.2-.018 4.843-.744 6.223-1.723 3.277-5.024 6.251-9.057 8.159-4.224 1.999-9.225 2.805-13.379 2.154-2.833-.444-5.063-1.573-5.681-2.878-.617-1.304-.077-3.744 1.376-6.217 2.13-3.625 5.924-6.982 10.148-8.981 2.951-1.397 6.095-2.128 8.99-2.128zm77.689-19.403c-8.441 3.996-17.573 2.42-19.06-.724-.617-1.304-.077-3.745 1.376-6.217 2.13-3.625 5.924-6.981 10.148-8.98 3.129-1.481 6.261-2.128 9.003-2.128 4.064 0 7.272 1.423 8.333 3.667 1.78 3.757-2.033 10.706-9.8 14.382zm303.471-37.901a43.93 43.93 0 0 1-31.393-31.801 9.998 9.998 0 0 0-19.401 0 43.92 43.92 0 0 1-31.381 31.799 10.194 10.194 0 0 0-7.595 9.852c0 4.621 3.119 8.67 7.585 9.85a43.923 43.923 0 0 1 31.391 31.801 10 10 0 0 0 19.401-.001 43.927 43.927 0 0 1 31.383-31.799 10.194 10.194 0 0 0 7.594-9.839 10.199 10.199 0 0 0-7.584-9.862zm-41.093 25.424a63.972 63.972 0 0 0-15.576-15.574 63.976 63.976 0 0 0 15.576-15.575 63.976 63.976 0 0 0 15.576 15.575 64.025 64.025 0 0 0-15.576 15.574zm94.285 244.951c-19.026-.794-43.783-11.338-44.026-11.443a10.001 10.001 0 0 0-13.871 7.889l-7.573 57.936c-4.461-2.472-9.635-4.204-15.295-4.944-8.924-1.168-18.019.301-25.608 4.131-8.863 4.474-14.57 11.811-15.658 20.13-1.088 8.319 2.542 16.877 9.958 23.479 6.351 5.652 14.763 9.408 23.686 10.574 1.997.261 3.966.388 5.896.388 17.323 0 31.497-10.192 33.421-24.902v-.001c.021-.161.03-.32.048-.48.016-.102.041-.201.054-.304l9.266-70.886c10.263 3.524 25.353 7.853 38.869 8.417 5.531.217 10.178-4.057 10.408-9.574.23-5.52-4.057-10.18-9.575-10.41zm-68.903 80.644c-.576 4.402-7.923 8.449-16.893 7.277-4.842-.633-9.694-2.757-12.98-5.682-2.321-2.067-3.634-4.346-3.424-5.948.209-1.602 2.063-3.466 4.838-4.867 3.046-1.537 6.877-2.366 10.702-2.366 1.107 0 2.215.069 3.303.211 8.97 1.173 15.029 6.972 14.454 11.375z"/>
</symbol><symbol id="icon-retro" viewBox="0 0 496 325">
    <path d="M464 0H32C14.328 0 0 14.328 0 32v256c0 17.672 14.328 32 32 32h432c17.672 0 32-14.328 32-32V32c0-17.672-14.328-32-32-32zM50.09 304l65.445-72h264.93l65.445 72zM480 288a16.002 16.002 0 0 1-12.762 15.664l-77.316-85.047A8.009 8.009 0 0 0 384 216H112c-2.254 0-4.402.95-5.922 2.617l-77.277 85.047A16.002 16.002 0 0 1 16 288V32c0-8.836 7.164-16 16-16h432c8.836 0 16 7.164 16 16zm0 0"/>
    <path d="M112 120c-22.09 0-40 17.91-40 40s17.91 40 40 40 40-17.91 40-40c-.027-22.082-17.918-39.973-40-40zm0 64c-13.254 0-24-10.746-24-24s10.746-24 24-24 24 10.746 24 24-10.746 24-24 24zm272-64c-22.09 0-40 17.91-40 40s17.91 40 40 40 40-17.91 40-40c-.027-22.082-17.918-39.973-40-40zm0 64c-13.254 0-24-10.746-24-24s10.746-24 24-24 24 10.746 24 24-10.746 24-24 24zm-56-64H168a8 8 0 0 0-8 8v64a8 8 0 0 0 8 8h160a8 8 0 0 0 8-8v-64a8 8 0 0 0-8-8zm-8 64H176v-48h144zM464 32H32a8 8 0 0 0-8 8v56a8 8 0 0 0 8 8h432a8 8 0 0 0 8-8V40a8 8 0 0 0-8-8zm-8 56H40V48h416zM184 272h-80a8 8 0 0 0 0 16h80a8 8 0 0 0 0-16zm29.68 2.32a8.374 8.374 0 0 0-11.36 0 9.224 9.224 0 0 0-1.68 2.64A6.69 6.69 0 0 0 200 280c.012.535.066 1.07.16 1.602.086.5.25.984.48 1.437.176.512.419.996.72 1.441.296.418.617.82.96 1.2a8.112 8.112 0 0 0 11.36 0l.96-1.2c.301-.449.54-.933.72-1.44.234-.45.39-.938.472-1.438.098-.532.156-1.067.168-1.602a7.965 7.965 0 0 0-.64-3.04 9.224 9.224 0 0 0-1.68-2.64zm0 0"/>
</symbol><symbol id="icon-search2" viewBox="0 0 30 30">
    <path d="M20.194 3.46c-4.613-4.613-12.121-4.613-16.734 0-4.612 4.614-4.612 12.121 0 16.735 4.108 4.107 10.506 4.547 15.116 1.34.097.459.319.897.676 1.254l6.718 6.718a2.498 2.498 0 0 0 3.535 0 2.496 2.496 0 0 0 0-3.535l-6.718-6.72a2.5 2.5 0 0 0-1.253-.674c3.209-4.611 2.769-11.008-1.34-15.118zm-2.121 14.614c-3.444 3.444-9.049 3.444-12.492 0-3.442-3.444-3.442-9.048 0-12.492 3.443-3.443 9.048-3.443 12.492 0 3.444 3.444 3.444 9.048 0 12.492z"/>
</symbol><symbol id="icon-slider-arrow" viewBox="0 0 477 477">
    <path d="M360.753 229.624L136.917 5.788a13.383 13.383 0 0 0-18.993 0 13.383 13.383 0 0 0 0 18.992l214.29 214.291-214.29 214.29a13.383 13.383 0 0 0 0 18.992c2.585 2.586 6.066 3.978 9.447 3.978 3.38 0 6.861-1.293 9.446-3.978l223.836-223.836c5.271-5.171 5.271-13.722.1-18.893z" stroke-width=".5" stroke="#000" stroke-opacity=".47"/>
</symbol><symbol id="icon-youtube" viewBox="0 0 512 512">
    <path d="M224.113 303.96L307.387 256l-83.274-47.96zm0 0"/>
    <path d="M256 0C114.637 0 0 114.637 0 256s114.637 256 256 256 256-114.637 256-256S397.363 0 256 0zm159.96 256.262s0 51.918-6.585 76.953c-3.691 13.703-14.496 24.508-28.2 28.195C356.142 368 256 368 256 368s-99.879 0-125.176-6.852c-13.703-3.687-24.508-14.496-28.199-28.199-6.59-24.77-6.59-76.949-6.59-76.949s0-51.914 6.59-76.95c3.688-13.702 14.758-24.773 28.2-28.46C155.858 144 256 144 256 144s100.14 0 125.176 6.852c13.703 3.687 24.508 14.496 28.199 28.199 6.852 25.035 6.586 77.21 6.586 77.21zm0 0"/>
</symbol></svg>